# ProBuilder 4.4.0
# https://unity3d.com/unity/features/worldbuilding/probuilder
# 10/28/2020 11:26:08 AM

mtllib ./Pipe_(2).mtl
o Pipe (2)

g Pipe (2)
v 0.01092619 0 0.1039559
v 0 0 0
v 0.01092619 0.15 0.1039559
v 0 0.15 0
v 0.05000001 0 0
v 0.05983359 0 0.09356026
v 0.05000001 0.15 0
v 0.05983359 0.15 0.09356026
v 0.04322729 0 0.2033683
v 0.04322729 0.15 0.2033683
v 0.08890456 0 0.1830315
v 0.08890456 0.15 0.1830315
v 0.0954915 0 0.2938926
v 0.0954915 0.15 0.2938926
v 0.1359424 0 0.2645034
v 0.1359424 0.15 0.2645034
v 0.1654347 0 0.3715724
v 0.1654347 0.15 0.3715724
v 0.1988913 0 0.3344152
v 0.1988913 0.15 0.3344152
v 0.25 0 0.4330127
v 0.25 0.15 0.4330127
v 0.275 0 0.3897114
v 0.275 0.15 0.3897114
v 0.3454915 0 0.4755283
v 0.3454915 0.15 0.4755283
v 0.3609424 0 0.4279754
v 0.3609424 0.15 0.4279754
v 0.4477358 0 0.497261
v 0.4477358 0.15 0.497261
v 0.4529622 0 0.4475349
v 0.4529622 0.15 0.4475349
v 0.5522643 0 0.497261
v 0.5522643 0.15 0.497261
v 0.5470378 0 0.4475349
v 0.5470378 0.15 0.4475349
v 0.6545085 0 0.4755283
v 0.6545085 0.15 0.4755283
v 0.6390576 0 0.4279754
v 0.6390576 0.15 0.4279754
v 0.75 0 0.4330127
v 0.75 0.15 0.4330127
v 0.725 0 0.3897114
v 0.725 0.15 0.3897114
v 0.8345653 0 0.3715724
v 0.8345653 0.15 0.3715724
v 0.8011088 0 0.3344152
v 0.8011088 0.15 0.3344152
v 0.9045085 0 0.2938926
v 0.9045085 0.15 0.2938926
v 0.8640577 0 0.2645033
v 0.8640577 0.15 0.2645033
v 0.9567727 0 0.2033683
v 0.9567727 0.15 0.2033683
v 0.9110955 0 0.1830315
v 0.9110955 0.15 0.1830315
v 0.9890738 0 0.1039558
v 0.9890738 0.15 0.1039558
v 0.9401664 0 0.09356022
v 0.9401664 0.15 0.09356022
v 1 0 -4.371139E-08
v 1 0.15 -4.371139E-08
v 0.95 0 -3.934025E-08
v 0.95 0.15 -3.934025E-08
v 0.9890738 0 -0.1039559
v 0.9890738 0.15 -0.1039559
v 0.9401664 0 -0.0935603
v 0.9401664 0.15 -0.0935603
v 0.9567727 0 -0.2033683
v 0.9567727 0.15 -0.2033683
v 0.9110955 0 -0.1830314
v 0.9110955 0.15 -0.1830314
v 0.9045085 0 -0.2938926
v 0.9045085 0.15 -0.2938926
v 0.8640577 0 -0.2645033
v 0.8640577 0.15 -0.2645033
v 0.8345653 0 -0.3715724
v 0.8345653 0.15 -0.3715724
v 0.8011088 0 -0.3344151
v 0.8011088 0.15 -0.3344151
v 0.7499999 0 -0.4330127
v 0.7499999 0.15 -0.4330127
v 0.725 0 -0.3897114
v 0.725 0.15 -0.3897114
v 0.6545085 0 -0.4755282
v 0.6545085 0.15 -0.4755282
v 0.6390577 0 -0.4279754
v 0.6390577 0.15 -0.4279754
v 0.5522642 0 -0.497261
v 0.5522642 0.15 -0.497261
v 0.5470377 0 -0.4475349
v 0.5470377 0.15 -0.4475349
v 0.4477358 0 -0.497261
v 0.4477358 0.15 -0.497261
v 0.4529622 0 -0.4475349
v 0.4529622 0.15 -0.4475349
v 0.3454914 0 -0.4755282
v 0.3454914 0.15 -0.4755282
v 0.3609423 0 -0.4279754
v 0.3609423 0.15 -0.4279754
v 0.2500001 0 -0.4330127
v 0.2500001 0.15 -0.4330127
v 0.275 0 -0.3897114
v 0.275 0.15 -0.3897114
v 0.1654346 0 -0.3715724
v 0.1654346 0.15 -0.3715724
v 0.1988912 0 -0.3344151
v 0.1988912 0.15 -0.3344151
v 0.09549153 0 -0.2938927
v 0.09549153 0.15 -0.2938927
v 0.1359424 0 -0.2645034
v 0.1359424 0.15 -0.2645034
v 0.04322723 0 -0.2033682
v 0.04322723 0.15 -0.2033682
v 0.0889045 0 -0.1830314
v 0.0889045 0.15 -0.1830314
v 0.01092622 0 -0.1039559
v 0.01092622 0.15 -0.1039559
v 0.05983362 0 -0.09356029
v 0.05983362 0.15 -0.09356029
v 0.01092619 0.3 0.1039559
v 0 0.3 0
v 0.05000001 0.3 0
v 0.05983359 0.3 0.09356026
v 0.04322729 0.3 0.2033683
v 0.08890456 0.3 0.1830315
v 0.0954915 0.3 0.2938926
v 0.1359424 0.3 0.2645034
v 0.1654347 0.3 0.3715724
v 0.1988913 0.3 0.3344152
v 0.25 0.3 0.4330127
v 0.275 0.3 0.3897114
v 0.3454915 0.3 0.4755283
v 0.3609424 0.3 0.4279754
v 0.4477358 0.3 0.497261
v 0.4529622 0.3 0.4475349
v 0.5522643 0.3 0.497261
v 0.5470378 0.3 0.4475349
v 0.6545085 0.3 0.4755283
v 0.6390576 0.3 0.4279754
v 0.75 0.3 0.4330127
v 0.725 0.3 0.3897114
v 0.8345653 0.3 0.3715724
v 0.8011088 0.3 0.3344152
v 0.9045085 0.3 0.2938926
v 0.8640577 0.3 0.2645033
v 0.9567727 0.3 0.2033683
v 0.9110955 0.3 0.1830315
v 0.9890738 0.3 0.1039558
v 0.9401664 0.3 0.09356022
v 1 0.3 -4.371139E-08
v 0.95 0.3 -3.934025E-08
v 0.9890738 0.3 -0.1039559
v 0.9401664 0.3 -0.0935603
v 0.9567727 0.3 -0.2033683
v 0.9110955 0.3 -0.1830314
v 0.9045085 0.3 -0.2938926
v 0.8640577 0.3 -0.2645033
v 0.8345653 0.3 -0.3715724
v 0.8011088 0.3 -0.3344151
v 0.7499999 0.3 -0.4330127
v 0.725 0.3 -0.3897114
v 0.6545085 0.3 -0.4755282
v 0.6390577 0.3 -0.4279754
v 0.5522642 0.3 -0.497261
v 0.5470377 0.3 -0.4475349
v 0.4477358 0.3 -0.497261
v 0.4529622 0.3 -0.4475349
v 0.3454914 0.3 -0.4755282
v 0.3609423 0.3 -0.4279754
v 0.2500001 0.3 -0.4330127
v 0.275 0.3 -0.3897114
v 0.1654346 0.3 -0.3715724
v 0.1988912 0.3 -0.3344151
v 0.09549153 0.3 -0.2938927
v 0.1359424 0.3 -0.2645034
v 0.04322723 0.3 -0.2033682
v 0.0889045 0.3 -0.1830314
v 0.01092622 0.3 -0.1039559
v 0.05983362 0.3 -0.09356029

vt 0.1045285 0
vt 0 0
vt 0.1045285 0.15
vt 0 0.15
vt -0.005226422 0
vt -0.09930204 0
vt -0.005226422 0.15
vt -0.09930204 0.15
vt 0.2067727 0
vt 0.1022443 0
vt 0.2067727 0.15
vt 0.1022443 0.15
vt -0.1074707 0
vt -0.2015463 0
vt -0.1074707 0.15
vt -0.2015463 0.15
vt 0.3022642 0
vt 0.1977358 0
vt 0.3022642 0.15
vt 0.1977358 0.15
vt -0.2029622 0
vt -0.2970378 0
vt -0.2029622 0.15
vt -0.2970378 0.15
vt 0.3868296 0
vt 0.2823011 0
vt 0.3868296 0.15
vt 0.2823011 0.15
vt -0.2875275 0
vt -0.3816032 0
vt -0.2875275 0.15
vt -0.3816032 0.15
vt 0.4567728 0
vt 0.3522443 0
vt 0.4567728 0.15
vt 0.3522443 0.15
vt -0.3574707 0
vt -0.4515463 0
vt -0.3574707 0.15
vt -0.4515463 0.15
vt 0.509037 0
vt 0.4045085 0
vt 0.509037 0.15
vt 0.4045085 0.15
vt -0.409735 0
vt -0.5038106 0
vt -0.409735 0.15
vt -0.5038106 0.15
vt 0.5413381 0
vt 0.4368096 0
vt 0.5413381 0.15
vt 0.4368096 0.15
vt -0.442036 0
vt -0.5361116 0
vt -0.442036 0.15
vt -0.5361116 0.15
vt 0.5522643 0
vt 0.4477358 0
vt 0.5522643 0.15
vt 0.4477358 0.15
vt -0.4529622 0
vt -0.5470378 0
vt -0.4529622 0.15
vt -0.5470378 0.15
vt -0.1045289 0
vt -0.1045289 0.15
vt 0.09930254 0
vt 0.005226914 0
vt 0.09930254 0.15
vt 0.005226914 0.15
vt -0.1022441 0
vt -0.2067724 0
vt -0.1022441 0.15
vt -0.2067724 0.15
vt 0.2015455 0
vt 0.10747 0
vt 0.2015455 0.15
vt 0.10747 0.15
vt -0.1977357 0
vt -0.3022642 0
vt -0.1977357 0.15
vt -0.3022642 0.15
vt 0.2970381 0
vt 0.2029625 0
vt 0.2970381 0.15
vt 0.2029625 0.15
vt -0.282301 0
vt -0.3868295 0
vt -0.282301 0.15
vt -0.3868295 0.15
vt 0.3816027 0
vt 0.2875271 0
vt 0.3816027 0.15
vt 0.2875271 0.15
vt -0.3522443 0
vt -0.4567729 0
vt -0.3522443 0.15
vt -0.4567729 0.15
vt 0.4515465 0
vt 0.3574708 0
vt 0.4515465 0.15
vt 0.3574708 0.15
vt -0.4045085 0
vt -0.5090369 0
vt -0.4045085 0.15
vt -0.5090369 0.15
vt 0.5038104 0
vt 0.4097349 0
vt 0.5038104 0.15
vt 0.4097349 0.15
vt -0.4368095 0
vt -0.5413381 0
vt -0.4368095 0.15
vt -0.5413381 0.15
vt 0.5361117 0
vt 0.4420359 0
vt 0.5361117 0.15
vt 0.4420359 0.15
vt -0.4477358 0
vt -0.5522642 0
vt -0.4477358 0.15
vt -0.5522642 0.15
vt 0.5470377 0
vt 0.4529622 0
vt 0.5470377 0.15
vt 0.4529622 0.15
vt 0.1045285 0.3
vt 0 0.3
vt -0.005226422 0.3
vt -0.09930204 0.3
vt 0.2067727 0.3
vt 0.1022443 0.3
vt -0.1074707 0.3
vt -0.2015463 0.3
vt 0.3022642 0.3
vt 0.1977358 0.3
vt -0.2029622 0.3
vt -0.2970378 0.3
vt 0.3868296 0.3
vt 0.2823011 0.3
vt -0.2875275 0.3
vt -0.3816032 0.3
vt 0.4567728 0.3
vt 0.3522443 0.3
vt -0.3574707 0.3
vt -0.4515463 0.3
vt 0.509037 0.3
vt 0.4045085 0.3
vt -0.409735 0.3
vt -0.5038106 0.3
vt 0.5413381 0.3
vt 0.4368096 0.3
vt -0.442036 0.3
vt -0.5361116 0.3
vt 0.5522643 0.3
vt 0.4477358 0.3
vt -0.4529622 0.3
vt -0.5470378 0.3
vt -0.1045289 0.3
vt 0.09930254 0.3
vt 0.005226914 0.3
vt -0.1022441 0.3
vt -0.2067724 0.3
vt 0.2015455 0.3
vt 0.10747 0.3
vt -0.1977357 0.3
vt -0.3022642 0.3
vt 0.2970381 0.3
vt 0.2029625 0.3
vt -0.282301 0.3
vt -0.3868295 0.3
vt 0.3816027 0.3
vt 0.2875271 0.3
vt -0.3522443 0.3
vt -0.4567729 0.3
vt 0.4515465 0.3
vt 0.3574708 0.3
vt -0.4045085 0.3
vt -0.5090369 0.3
vt 0.5038104 0.3
vt 0.4097349 0.3
vt -0.4368095 0.3
vt -0.5413381 0.3
vt 0.5361117 0.3
vt 0.4420359 0.3
vt -0.4477358 0.3
vt -0.5522642 0.3
vt 0.5470377 0.3
vt 0.4529622 0.3
vt 0.01092619 0.1039559
vt 0.05000001 0
vt 0.05983359 0.09356026
vt -0.01092619 0.1039559
vt -0.05983359 0.09356026
vt -0.05000001 0
vt 0.04322729 0.2033683
vt 0.08890456 0.1830315
vt -0.04322729 0.2033683
vt -0.08890456 0.1830315
vt 0.0954915 0.2938926
vt 0.1359424 0.2645034
vt -0.0954915 0.2938926
vt -0.1359424 0.2645034
vt 0.1654347 0.3715724
vt 0.1988913 0.3344152
vt -0.1654347 0.3715724
vt -0.1988913 0.3344152
vt 0.25 0.4330127
vt 0.275 0.3897114
vt -0.25 0.4330127
vt -0.275 0.3897114
vt 0.3454915 0.4755283
vt 0.3609424 0.4279754
vt -0.3454915 0.4755283
vt -0.3609424 0.4279754
vt 0.4477358 0.497261
vt 0.4529622 0.4475349
vt -0.4477358 0.497261
vt -0.4529622 0.4475349
vt 0.5522643 0.497261
vt 0.5470378 0.4475349
vt -0.5522643 0.497261
vt -0.5470378 0.4475349
vt 0.6545085 0.4755283
vt 0.6390576 0.4279754
vt -0.6545085 0.4755283
vt -0.6390576 0.4279754
vt 0.75 0.4330127
vt 0.725 0.3897114
vt -0.75 0.4330127
vt -0.725 0.3897114
vt 0.8345653 0.3715724
vt 0.8011088 0.3344152
vt -0.8345653 0.3715724
vt -0.8011088 0.3344152
vt 0.9045085 0.2938926
vt 0.8640577 0.2645033
vt -0.9045085 0.2938926
vt -0.8640577 0.2645033
vt 0.9567727 0.2033683
vt 0.9110955 0.1830315
vt -0.9567727 0.2033683
vt -0.9110955 0.1830315
vt 0.9890738 0.1039558
vt 0.9401664 0.09356022
vt -0.9890738 0.1039558
vt -0.9401664 0.09356022
vt 1 -4.371139E-08
vt 0.95 -3.934025E-08
vt -1 -4.371139E-08
vt -0.95 -3.934025E-08
vt 0.9890738 -0.1039559
vt 0.9401664 -0.0935603
vt -0.9890738 -0.1039559
vt -0.9401664 -0.0935603
vt 0.9567727 -0.2033683
vt 0.9110955 -0.1830314
vt -0.9567727 -0.2033683
vt -0.9110955 -0.1830314
vt 0.9045085 -0.2938926
vt 0.8640577 -0.2645033
vt -0.9045085 -0.2938926
vt -0.8640577 -0.2645033
vt 0.8345653 -0.3715724
vt 0.8011088 -0.3344151
vt -0.8345653 -0.3715724
vt -0.8011088 -0.3344151
vt 0.7499999 -0.4330127
vt 0.725 -0.3897114
vt -0.7499999 -0.4330127
vt -0.725 -0.3897114
vt 0.6545085 -0.4755282
vt 0.6390577 -0.4279754
vt -0.6545085 -0.4755282
vt -0.6390577 -0.4279754
vt 0.5522642 -0.497261
vt 0.5470377 -0.4475349
vt -0.5522642 -0.497261
vt -0.5470377 -0.4475349
vt 0.4477358 -0.497261
vt 0.4529622 -0.4475349
vt -0.4477358 -0.497261
vt -0.4529622 -0.4475349
vt 0.3454914 -0.4755282
vt 0.3609423 -0.4279754
vt -0.3454914 -0.4755282
vt -0.3609423 -0.4279754
vt 0.2500001 -0.4330127
vt 0.275 -0.3897114
vt -0.2500001 -0.4330127
vt -0.275 -0.3897114
vt 0.1654346 -0.3715724
vt 0.1988912 -0.3344151
vt -0.1654346 -0.3715724
vt -0.1988912 -0.3344151
vt 0.09549153 -0.2938927
vt 0.1359424 -0.2645034
vt -0.09549153 -0.2938927
vt -0.1359424 -0.2645034
vt 0.04322723 -0.2033682
vt 0.0889045 -0.1830314
vt -0.04322723 -0.2033682
vt -0.0889045 -0.1830314
vt 0.01092622 -0.1039559
vt 0.05983362 -0.09356029
vt -0.01092622 -0.1039559
vt -0.05983362 -0.09356029

vn -0.9945219 0 0.1045283
vn 0.9945219 0 -0.1045284
vn -0.9510565 0 0.3090172
vn 0.9510565 0 -0.3090171
vn -0.8660255 0 0.4999999
vn 0.8660254 0 -0.5
vn -0.7431449 0 0.6691306
vn 0.7431449 0 -0.6691305
vn -0.5877854 0 0.8090169
vn 0.5877851 0 -0.8090171
vn -0.4067365 0 0.9135455
vn 0.4067368 0 -0.9135454
vn -0.2079117 0 0.9781476
vn 0.2079116 0 -0.9781476
vn 0 0 1
vn 0 0 -1
vn 0.2079118 0 0.9781476
vn -0.2079117 0 -0.9781476
vn 0.4067367 0 0.9135454
vn -0.4067368 0 -0.9135454
vn 0.5877851 0 0.8090171
vn -0.5877849 0 -0.8090172
vn 0.743145 0 0.6691305
vn -0.7431452 0 -0.6691301
vn 0.8660255 0 0.4999999
vn -0.8660253 0 -0.5000002
vn 0.9510565 0 0.309017
vn -0.9510567 0 -0.3090165
vn 0.9945219 0 0.1045283
vn -0.9945219 0 -0.1045284
vn 0.8660255 0 -0.4999999
vn -0.8660253 0 0.5000002
vn 0.8660253 0 0.5000002
vn 0 -1 0
vn 0 1 0

usemtl ProBuilderDefault
f 3/3/1 4/4/1 2/2/1 1/1/1
f 7/7/2 8/8/2 6/6/2 5/5/2
f 10/11/3 3/12/3 1/10/3 9/9/3
f 8/15/4 12/16/4 11/14/4 6/13/4
f 14/19/5 10/20/5 9/18/5 13/17/5
f 12/23/6 16/24/6 15/22/6 11/21/6
f 18/27/7 14/28/7 13/26/7 17/25/7
f 16/31/8 20/32/8 19/30/8 15/29/8
f 22/35/9 18/36/9 17/34/9 21/33/9
f 20/39/10 24/40/10 23/38/10 19/37/10
f 26/43/11 22/44/11 21/42/11 25/41/11
f 24/47/12 28/48/12 27/46/12 23/45/12
f 30/51/13 26/52/13 25/50/13 29/49/13
f 28/55/14 32/56/14 31/54/14 27/53/14
f 34/59/15 30/60/15 29/58/15 33/57/15
f 32/63/16 36/64/16 35/62/16 31/61/16
f 38/51/17 34/52/17 33/50/17 37/49/17
f 36/55/18 40/56/18 39/54/18 35/53/18
f 42/43/19 38/44/19 37/42/19 41/41/19
f 40/47/20 44/48/20 43/46/20 39/45/20
f 46/35/21 42/36/21 41/34/21 45/33/21
f 44/39/22 48/40/22 47/38/22 43/37/22
f 50/27/23 46/28/23 45/26/23 49/25/23
f 48/31/24 52/32/24 51/30/24 47/29/24
f 54/19/25 50/20/25 49/18/25 53/17/25
f 52/23/26 56/24/26 55/22/26 51/21/26
f 58/11/27 54/12/27 53/10/27 57/9/27
f 56/15/28 60/16/28 59/14/28 55/13/28
f 62/3/29 58/4/29 57/2/29 61/1/29
f 60/7/30 64/8/30 63/6/30 59/5/30
f 66/4/2 62/66/2 61/65/2 65/2/2
f 64/69/1 68/70/1 67/68/1 63/67/1
f 70/73/4 66/74/4 65/72/4 69/71/4
f 68/77/3 72/78/3 71/76/3 67/75/3
f 74/81/31 70/82/31 69/80/31 73/79/31
f 72/85/32 76/86/32 75/84/32 71/83/32
f 78/89/8 74/90/8 73/88/8 77/87/8
f 76/93/7 80/94/7 79/92/7 75/91/7
f 82/97/10 78/98/10 77/96/10 81/95/10
f 80/101/9 84/102/9 83/100/9 79/99/9
f 86/105/12 82/106/12 81/104/12 85/103/12
f 84/109/11 88/110/11 87/108/11 83/107/11
f 90/113/14 86/114/14 85/112/14 89/111/14
f 88/117/13 92/118/13 91/116/13 87/115/13
f 94/121/16 90/122/16 89/120/16 93/119/16
f 92/125/15 96/126/15 95/124/15 91/123/15
f 98/113/18 94/114/18 93/112/18 97/111/18
f 96/117/17 100/118/17 99/116/17 95/115/17
f 102/105/20 98/106/20 97/104/20 101/103/20
f 100/109/19 104/110/19 103/108/19 99/107/19
f 106/97/22 102/98/22 101/96/22 105/95/22
f 104/101/21 108/102/21 107/100/21 103/99/21
f 110/89/24 106/90/24 105/88/24 109/87/24
f 108/93/23 112/94/23 111/92/23 107/91/23
f 114/81/26 110/82/26 109/80/26 113/79/26
f 112/85/33 116/86/33 115/84/33 111/83/33
f 118/73/28 114/74/28 113/72/28 117/71/28
f 116/77/27 120/78/27 119/76/27 115/75/27
f 4/4/30 118/66/30 117/65/30 2/2/30
f 120/69/29 7/70/29 5/68/29 119/67/29
f 121/127/1 122/128/1 4/4/1 3/3/1
f 123/129/2 124/130/2 8/8/2 7/7/2
f 125/131/3 121/132/3 3/12/3 10/11/3
f 124/133/4 126/134/4 12/16/4 8/15/4
f 127/135/5 125/136/5 10/20/5 14/19/5
f 126/137/6 128/138/6 16/24/6 12/23/6
f 129/139/7 127/140/7 14/28/7 18/27/7
f 128/141/8 130/142/8 20/32/8 16/31/8
f 131/143/9 129/144/9 18/36/9 22/35/9
f 130/145/10 132/146/10 24/40/10 20/39/10
f 133/147/11 131/148/11 22/44/11 26/43/11
f 132/149/12 134/150/12 28/48/12 24/47/12
f 135/151/13 133/152/13 26/52/13 30/51/13
f 134/153/14 136/154/14 32/56/14 28/55/14
f 137/155/15 135/156/15 30/60/15 34/59/15
f 136/157/16 138/158/16 36/64/16 32/63/16
f 139/151/17 137/152/17 34/52/17 38/51/17
f 138/153/18 140/154/18 40/56/18 36/55/18
f 141/147/19 139/148/19 38/44/19 42/43/19
f 140/149/20 142/150/20 44/48/20 40/47/20
f 143/143/21 141/144/21 42/36/21 46/35/21
f 142/145/22 144/146/22 48/40/22 44/39/22
f 145/139/23 143/140/23 46/28/23 50/27/23
f 144/141/24 146/142/24 52/32/24 48/31/24
f 147/135/25 145/136/25 50/20/25 54/19/25
f 146/137/26 148/138/26 56/24/26 52/23/26
f 149/131/27 147/132/27 54/12/27 58/11/27
f 148/133/28 150/134/28 60/16/28 56/15/28
f 151/127/29 149/128/29 58/4/29 62/3/29
f 150/129/30 152/130/30 64/8/30 60/7/30
f 153/128/2 151/159/2 62/66/2 66/4/2
f 152/160/1 154/161/1 68/70/1 64/69/1
f 155/162/4 153/163/4 66/74/4 70/73/4
f 154/164/3 156/165/3 72/78/3 68/77/3
f 157/166/31 155/167/31 70/82/31 74/81/31
f 156/168/32 158/169/32 76/86/32 72/85/32
f 159/170/8 157/171/8 74/90/8 78/89/8
f 158/172/7 160/173/7 80/94/7 76/93/7
f 161/174/10 159/175/10 78/98/10 82/97/10
f 160/176/9 162/177/9 84/102/9 80/101/9
f 163/178/12 161/179/12 82/106/12 86/105/12
f 162/180/11 164/181/11 88/110/11 84/109/11
f 165/182/14 163/183/14 86/114/14 90/113/14
f 164/184/13 166/185/13 92/118/13 88/117/13
f 167/186/16 165/187/16 90/122/16 94/121/16
f 166/188/15 168/189/15 96/126/15 92/125/15
f 169/182/18 167/183/18 94/114/18 98/113/18
f 168/184/17 170/185/17 100/118/17 96/117/17
f 171/178/20 169/179/20 98/106/20 102/105/20
f 170/180/19 172/181/19 104/110/19 100/109/19
f 173/174/22 171/175/22 102/98/22 106/97/22
f 172/176/21 174/177/21 108/102/21 104/101/21
f 175/170/24 173/171/24 106/90/24 110/89/24
f 174/172/23 176/173/23 112/94/23 108/93/23
f 177/166/26 175/167/26 110/82/26 114/81/26
f 176/168/33 178/169/33 116/86/33 112/85/33
f 179/162/28 177/163/28 114/74/28 118/73/28
f 178/164/27 180/165/27 120/78/27 116/77/27
f 122/128/30 179/159/30 118/66/30 4/4/30
f 180/160/29 123/161/29 7/70/29 120/69/29
f 5/191/34 6/192/34 1/190/34 2/2/34
f 124/194/35 123/195/35 122/2/35 121/193/35
f 6/192/34 11/197/34 9/196/34 1/190/34
f 126/199/35 124/194/35 121/193/35 125/198/35
f 11/197/34 15/201/34 13/200/34 9/196/34
f 128/203/35 126/199/35 125/198/35 127/202/35
f 15/201/34 19/205/34 17/204/34 13/200/34
f 130/207/35 128/203/35 127/202/35 129/206/35
f 19/205/34 23/209/34 21/208/34 17/204/34
f 132/211/35 130/207/35 129/206/35 131/210/35
f 23/209/34 27/213/34 25/212/34 21/208/34
f 134/215/35 132/211/35 131/210/35 133/214/35
f 27/213/34 31/217/34 29/216/34 25/212/34
f 136/219/35 134/215/35 133/214/35 135/218/35
f 31/217/34 35/221/34 33/220/34 29/216/34
f 138/223/35 136/219/35 135/218/35 137/222/35
f 35/221/34 39/225/34 37/224/34 33/220/34
f 140/227/35 138/223/35 137/222/35 139/226/35
f 39/225/34 43/229/34 41/228/34 37/224/34
f 142/231/35 140/227/35 139/226/35 141/230/35
f 43/229/34 47/233/34 45/232/34 41/228/34
f 144/235/35 142/231/35 141/230/35 143/234/35
f 47/233/34 51/237/34 49/236/34 45/232/34
f 146/239/35 144/235/35 143/234/35 145/238/35
f 51/237/34 55/241/34 53/240/34 49/236/34
f 148/243/35 146/239/35 145/238/35 147/242/35
f 55/241/34 59/245/34 57/244/34 53/240/34
f 150/247/35 148/243/35 147/242/35 149/246/35
f 59/245/34 63/249/34 61/248/34 57/244/34
f 152/251/35 150/247/35 149/246/35 151/250/35
f 63/249/34 67/253/34 65/252/34 61/248/34
f 154/255/35 152/251/35 151/250/35 153/254/35
f 67/253/34 71/257/34 69/256/34 65/252/34
f 156/259/35 154/255/35 153/254/35 155/258/35
f 71/257/34 75/261/34 73/260/34 69/256/34
f 158/263/35 156/259/35 155/258/35 157/262/35
f 75/261/34 79/265/34 77/264/34 73/260/34
f 160/267/35 158/263/35 157/262/35 159/266/35
f 79/265/34 83/269/34 81/268/34 77/264/34
f 162/271/35 160/267/35 159/266/35 161/270/35
f 83/269/34 87/273/34 85/272/34 81/268/34
f 164/275/35 162/271/35 161/270/35 163/274/35
f 87/273/34 91/277/34 89/276/34 85/272/34
f 166/279/35 164/275/35 163/274/35 165/278/35
f 91/277/34 95/281/34 93/280/34 89/276/34
f 168/283/35 166/279/35 165/278/35 167/282/35
f 95/281/34 99/285/34 97/284/34 93/280/34
f 170/287/35 168/283/35 167/282/35 169/286/35
f 99/285/34 103/289/34 101/288/34 97/284/34
f 172/291/35 170/287/35 169/286/35 171/290/35
f 103/289/34 107/293/34 105/292/34 101/288/34
f 174/295/35 172/291/35 171/290/35 173/294/35
f 107/293/34 111/297/34 109/296/34 105/292/34
f 176/299/35 174/295/35 173/294/35 175/298/35
f 111/297/34 115/301/34 113/300/34 109/296/34
f 178/303/35 176/299/35 175/298/35 177/302/35
f 115/301/34 119/305/34 117/304/34 113/300/34
f 180/307/35 178/303/35 177/302/35 179/306/35
f 119/305/34 5/191/34 2/2/34 117/304/34
f 123/195/35 180/307/35 179/306/35 122/2/35

